<svg width="48" height="52" viewBox="0 0 48 52" fill="none" xmlns="http://www.w3.org/2000/svg">
<path d="M46.4557 46.5101L36.181 35.375C39.2617 31.0261 40.7 25.5706 40.2041 20.1152C39.7082 14.6597 37.3153 9.61288 33.5108 5.9984C29.7062 2.38391 24.775 0.472451 19.7173 0.651762C14.6596 0.831073 9.8543 3.08773 6.27607 6.96396C2.69784 10.8402 0.614678 16.0457 0.449152 21.5246C0.283626 27.0035 2.04814 32.3454 5.38474 36.4668C8.72135 40.5882 13.3802 43.1804 18.4162 43.7176C23.4522 44.2547 28.4883 42.6966 32.5029 39.3594L42.7863 50.5015C43.0278 50.7632 43.3145 50.9707 43.6301 51.1123C43.9456 51.2539 44.2838 51.3267 44.6253 51.3267C44.9669 51.3267 45.3051 51.2539 45.6206 51.1123C45.9362 50.9707 46.2229 50.7632 46.4644 50.5015C46.7059 50.2399 46.8975 49.9293 47.0282 49.5875C47.1589 49.2457 47.2261 48.8793 47.2261 48.5094C47.2261 48.1394 47.1589 47.773 47.0282 47.4312C46.8975 47.0894 46.7059 46.7788 46.4644 46.5172L46.4557 46.5101ZM5.67468 22.25C5.67468 19.0978 6.53754 16.0165 8.15414 13.3956C9.77075 10.7747 12.0685 8.73193 14.7568 7.52565C17.4451 6.31938 20.4032 6.00377 23.2571 6.61872C26.111 7.23367 28.7325 8.75157 30.7901 10.9805C32.8476 13.2094 34.2488 16.0492 34.8165 19.1407C35.3842 22.2323 35.0928 25.4368 33.9793 28.349C32.8657 31.2612 30.98 33.7503 28.5606 35.5015C26.1412 37.2528 23.2967 38.1875 20.3869 38.1875C16.4862 38.1831 12.7464 36.5026 9.98823 33.5147C7.23002 30.5268 5.67869 26.4755 5.67468 22.25Z" fill="white"/>
</svg>
